<mxfile host="Electron" modified="2024-04-15T05:52:59.238Z" agent="Mozilla/5.0 (Windows NT 10.0; Win64; x64) AppleWebKit/537.36 (KHTML, like Gecko) draw.io/22.1.2 Chrome/114.0.5735.289 Electron/25.9.4 Safari/537.36" etag="_X1299-QGo52WoE759nk" version="22.1.2" type="device">
  <diagram name="Страница — 1" id="fDPiukMXaTospdDyiJQI">
    <mxGraphModel dx="2243" dy="1987" grid="1" gridSize="10" guides="1" tooltips="1" connect="1" arrows="1" fold="1" page="1" pageScale="1" pageWidth="827" pageHeight="1169" math="0" shadow="0">
      <root>
        <mxCell id="0" />
        <mxCell id="1" parent="0" />
        <mxCell id="tjha7oBD4TnNNyMjmvkG-1" value="Windows 10/11" style="verticalAlign=top;align=center;spacingTop=8;spacingLeft=2;spacingRight=12;shape=cube;size=10;direction=south;fontStyle=4;html=1;whiteSpace=wrap;fontSize=26;" parent="1" vertex="1">
          <mxGeometry x="-30" y="-1040" width="670" height="420" as="geometry" />
        </mxCell>
        <mxCell id="tjha7oBD4TnNNyMjmvkG-5" value="NET.Framework" style="verticalAlign=top;align=center;spacingTop=8;spacingLeft=2;spacingRight=12;shape=cube;size=10;direction=south;fontStyle=4;html=1;whiteSpace=wrap;" parent="1" vertex="1">
          <mxGeometry x="209" y="-970" width="205" height="297.5" as="geometry" />
        </mxCell>
        <mxCell id="tjha7oBD4TnNNyMjmvkG-3" value="NAudio.Wave" style="shape=module;align=left;spacingLeft=20;align=center;verticalAlign=middle;whiteSpace=wrap;html=1;" parent="1" vertex="1">
          <mxGeometry x="221.5" y="-868.75" width="150" height="50" as="geometry" />
        </mxCell>
        <mxCell id="tjha7oBD4TnNNyMjmvkG-4" value="Accord.Video" style="shape=module;align=left;spacingLeft=20;align=center;verticalAlign=middle;whiteSpace=wrap;html=1;" parent="1" vertex="1">
          <mxGeometry x="221.5" y="-808.75" width="150" height="50" as="geometry" />
        </mxCell>
        <mxCell id="tjha7oBD4TnNNyMjmvkG-2" value="WPF&lt;br&gt;(Windows Presentation Foundation)" style="shape=module;align=left;spacingLeft=20;align=center;verticalAlign=middle;whiteSpace=wrap;html=1;" parent="1" vertex="1">
          <mxGeometry x="221.5" y="-928.75" width="150" height="50" as="geometry" />
        </mxCell>
        <mxCell id="tjha7oBD4TnNNyMjmvkG-7" value="" style="shape=image;verticalLabelPosition=bottom;labelBackgroundColor=default;verticalAlign=top;aspect=fixed;imageAspect=0;image=data:image/png,iVBORw0KGgoAAAANSUhEUgAAAgAAAAIACAYAAAD0eNT6AAAACXBIWXMAAA7DAAAOwwHHb6hkAAAAGXRFWHRTb2Z0d2FyZQB3d3cuaW5rc2NhcGUub3Jnm+48GgAAGnNJREFUeJzt3Xu0bXVBL/DveeBBzjkoghRXsyQFzMJXo/KR8vDaY/TQshdXHYpGvhk1KiWpTFK7QAilIgglakVZZo/RYyTe7N7ULPOBkBh5h4oFKmCcwxE4j90fc5/YHPY++7fWmmv91pq/z2eMNc45m9+e68uevz3Xd83XSgAAAAAAAAAAAAAAAAAAAAAAAAAAAIAp2lA7AGs6PMnxy48TkhyX5OuSbEuyNcn9l/9+SK2AMEW3JPlYkouS/GnlLDBICsD8ODzJk5OckuTkJCcm2Vg1EcyHNyY5M8m+2kFgSBSAug5P8swkz0nypCSb6saBuXV5kjOiBEBvFIDZ25DkfyZ5bpKnJ7lv1TSwOJQAYCFtTPL9ST6cZMnDw2Osx+VxaAxYEBuTPCvJtam/8fTwGMLjsigBMDGHAKbrUUnenOQJtYPAwPxWkp+MwwEwNiedTcf9kpyb7p3K11fOAkP0mHSXxf55ur0CwIgUgP49JclV6U70s5sSpucxSR4cJQDGogD0Z0O6a5Xfke4mPcD0PTb2BMBYnAPQj6OTvDPdu/4+7Up31cCnkly3/OcNSW5P8pUkO5Ps7vk5YdZ2pLur5SRcIgjM3DcmuT79neH84SSvTndXwC2z+9+AanbE1QHAgnl0kv/I5BuuzyV5bbp7/kNr+ioASgAwEyel2w0/ycbq6iSnxbkYtK3PAqAEAFP1+HTH4cfdQF2b5AfjHAxI+i8ASgAwFd+U5OaMt1Hale74vmP7cLed6b8ALMVtg4EePSTJ5zPexuh9cVMgWM009gDYEwD0ZluSazL6Bmhvunf9jvPD6koLwEWF45QAoFdvz+gbnpuTnFojLCyQ0gKwLd3VMkoAMDOnZ/QNzr8nObFGWFgwpecA7L9Z0GsKxx/4cE4AMJJvzuhn/F+b7nwBYH2j7AHYz54AYKo2JvlQRtvAXJ/ka2uEhQU16h6A/ewJAKbmxRltw/LFJMdVSQqLa9wCkCgBwBQcneSWlG9QdqS7NTAwmnEOAazkcADQq7dltI3JaVVSwuKbtAAkSgDQk0eku36/dCNyaZ2YMAiTHAJYyeEAYGLvSPnG45ok960TEwahjz0A+9kTAIzt2CS7U7bR2Jfk5DoxYTD62gOwnz0BwFguSfkG4211IsKg9F0AEiUAGNH9k3w1ZRuKr6S7UgCYTJ+HAFZyOAAodkbKNxKvrZQRhmYaewD2sycAKPJ/U7ZxuD3e/UNfplkAEiUAWMex6U7qK9kwXFgpIwzRtA4BrORwALCms1K+UXC7X+jPLApAogQAa7gqZRuDD9QKCAM17UMAKzkcANzDoUl2pWxD8KJKGWGoZlkAEiUAWOHklG0A9iY5slJGGKpZHQJYyeEAIEn5O4KP1AoIA1ajACRKAJDkL1L2i39erYAwYLM+BLCSwwHQuH9L2S/999YKCANWswAkSgA0a0uSPSn7hXfzH+hf7QKQKAHQpG9O2S/6rbUCwsDNQwFIlABozjNS9kv+wVoBYeBqnQS4GicGQkNekLJf8CtqBYSBm6cCkCgBNMJkTbYXjrt5qimgXRtqBzjAq5KcM8b3PT/JW2O7yoIwUcsLwI6ppgDmyS9lvBJwepQAFoRJqgAAq1MCGDQTNNlaOG7XVFNAu5ZqBziIX0ryujG+7/Qkl8Y2ljlmcpYff9w31RTQrnk7B+BAzglgkExMgPU5HMDgmJQAZZQABsWEBCinBDAYJiPAaJQABsFEBBidEsDCMwkBxqMEsNBMQIDxKQEsLJMPYDJKAAvJxAOYnBLAwjHpAPqhBLBQTDiA/igBLAyTDaBfSgALwUQD6J8SwNwzyQCmQwlgrplgANOjBDC3TC6A6VICmEsmFsD0KQHMHZMKYDaUAOaKCQUwO0oAc8NkApgtJYC5YCIBzJ4SQHUmEUAdSgBVmUAA9SgBVGPyANSlBFCFiQNQnxLAzJk0APNBCWCmTBiA+aEEMDMmC8B8UQKYCRMFYP4oAUydSQIwn5QApsoEAZhfSgBTY3IAzDclgKkwMQDmnxJA70wKgMWgBNArEwJgcSgB9MZkAFgsSgC9MBEAFo8SwMRMAoDFpAQwERMAYHEpAYzNygdYbEoAY7HiARafEsDIrHSAYVACGIkVDjAcSgDFrGyAYVECKGJFAwyPEsC6rGSAYVICOCgrGGC4lADWZOUCDJsSwKqsWIDhUwK4FysVoA1KAPdghQK0Qwngv1mZAG1RAkhiRQK0SAnASgRolBLQOCsQoF1KQMOsPIC2KQGNsuIAUAIaZKUBkCgBzbHCANhPCWiIlQXASkpAI6woAA6kBDTASgJgNUrAwFlBAKxFCRgwKweAg1ECBsqKAWA9SsAAWSkAlFACBsYKAaCUEjAgVgYAo1ACBsKKAGBUSsAAWAkAjEMJWHCbawcAKPT5JEu1Q9CL09OtyzOS7KucpVkKALAo7l87AL16fpI7kry0dpBW2QUDQC0vSfLM2iFapQAAtd1ROwBVnVk7QKsUAKCmTUkeUDsEVX1bHI6uQgEAatqXZHftEFR1nyRH1g7RIgUAqGkpyT/UDkF1W2oHaJECANR2Tlze17q9tQO0SAEAavubJM9Lsqd2EKpRACpQAIB5cEWSxyZ5T5K7Kmdh9twMqAJnXgLz4uokz0j3xuR+lbPQj08nOapgnENAFSgAwLzZl+TW2iHohXf2c8whAABokAIAAA1SAACgQQoAALVtqB2gRQoAADRIAQCABikAANAgBQAAGqQAAECDFAAAaJACAAANUgAAoEEKAAA0SAEAgAYpAADQIAUAABqkAABAgxQAAGiQAgAADVIAAKBBCgAANEgBAIAGKQAA0CAFAAAapAAAQIMUAABokAIAAA1SAACgQQoAADRIAQCABikAANAgBQAAGqQAAECDFAAAaJACAAANUgAAoEEKAAA0SAEAgAYpAADQIAUAABqkAABAgxQAAGiQAgAADVIAAKBBCgAANEgBAIAGKQAA0CAFAAAapAAAQIMUAABokAIAAA1SAACgQQoAADRIAQCABikAANAgBQAAGqQAAECDFAAAaJACAAANUgAAoEEKAAA0SAEAgAYpAADQIAUAABqkAABAgxQAAGiQAgAADVIAAKBBCgAANEgBAIAGKQAA0CAFAAAapAAAQIMUAABokAIAAA1SAACgQQoAADRIAQCABikAANAgBQAAGqQAAECDFAAAaJACAAANUgAAoEEKAAA0SAEAgAYpAADQIAUAABqkAABAgxQAAGiQAgAADVIAAKBBCgAANEgBAIAGKQAA0CAFAAAapAAAQIMUAABokAIAAA1SAACgQQoAADRIAQCABikAANAgBQAAGqQAAECDFAAAaJACAAANUgAAoEGbawcAgAkcsfzn4Uk2JdmW5JDlr+1KckeSG5Lsnn20+aYAwGI6Mcmrkpya5MjKWWBSNyXZm+S2FV/bmbtftDcn2b7iv21Mcr8Rln9nkk8m+fMkv55kx9hJB0QBgMXz9CRXJtlSOwj0aFPufjefA/4+qS1JHrf8+IkkT05XOprmHABYLA9K8s548YdxHZfkN2qHmAcKACyWM5JsrR0CFtwPJzmmdojaFABYLN9aOwAMwKYkp9QOUZsCAIvFu3/oxyNqB6hNAQCgRQ+qHaA2BQCAFv2P2gFqUwAAaNEDageoTQEAoEXN3wen+R8ADNRJSd5fOwRU8MIkFxeMa/71zx4AAFqkANQOAAAVbKodoDYFAIAWNf/pgAoAAC3aUztAbQoAAC1SAGoHAIAKHAKoHQAAKrAHoHYAAKjAHoDaAQCggrtqB6hNAQCgRfYA1A4AABUoALUDAEAFDgHUDgAAFdgDUDsAAFRgD0DtAABQgT0AtQMAQAX2ANQOAAAV2ANQOwAAVGAPQO0AAFBB83sANtcOAJDk7UmeWDtEksuSvH6Vr5+T5LTCZfxUkvdOmGNzkr9O8g0FY29M8tQkX13lv/1KkmdNmKUPVyU5o3aIAygAtQMAJDkmybG1QyR5wBpfvzDJTyb5moJlXJzkW5LcMUGOlyc5pXDsK7L6i3+SHJn5+Ll+snaAVTgEUDsAwAK4OcmZhWMfluRVEzzXg5K8unDsnyT5wwmeq2V7aweoTQEAKPP7Sd5TOPbnk3zTmM9zYZLtBeNuS/LSMZ+DZF/tALUpAADlXpzk1oJx90nyliQbRlz+05I8s3DsK5PcMOLyudtS7QC1KQAA5f4j3Qtvie9M8rwRlr0lyW8Ujv1QkktGWDb3pgDUDgCwYN6a8rP8z0tydOHYX0hyfMG4O5M8P3ZhT6r5AuAqAGBR3Jlk15SfY62z6VdaSvKiJB9Pctg6Yx+Q5Pwkz1ln3MPTnTdQ4rVJri0cW2JPkh09Lm81O6e8fMagAACL4op019jPg+vTnal/bsHYZ6e7z8HB9hpcmOTQgmV9Msn/Lhg3ir9PclLPy1wEze9BcQgAYDwXJPnHwrFvztov8D+W5HsLlrEvXQFq/vr1njR/CEABABjP3nTH4ktekB+e5KxVvr49ya8XPt9vJvlA4VjWpwDUDgCwwK5O2WGApLtj3wkHfO016W78s57PJjl7hFywLgUAYDLnJLmmYNyWdJfu7b83wLckeUnhc7wsTqTrW/Ovf83/AAAmdFe6QwElt5Z9cpLnptv2XpLkkILv+Z0kfzZuONbU/EnwCgDA5P4hyZsKx56X7nDA4wvGfjnJT48bioNSAGoHABiIs5J8pmDckUleV7jMn0nypbETcTCbageoTQEA6MeudB8Z3NfZ5e9L8s6elsW92QNQOwDAgLwv3U1/JtV3meDemt8D0HwDAhbGDyV53JSWfV2S/9XTsn4myXcn+ZoJlnF2yg4n9OGxSf5pSsu+I8mTprTsSZWcgDloCgCwKI5afkxDn3tDb0l32d4fjPn9/5jyTwXsw/ZMr1hN+7MbJtH8HgCHAAD6964k7x7j+/aku91vySWFTKb5N8AKAMB0vCTJrSN+z7lJPjqFLNybAlA7AMBA3ZSyOwTutzPdR/0yG82fA6AAAEzH8zLaCXDb0p35z2xsWH/IsCkAAP07Jsn5Y3zf69J9ciDTt7t2gNoUAID+vTnJEWN832FJ3hbb5llQAGoHACh0abrdttN4PLbHnKclefoE3/+EJC/tKUuJ92d6P9etM/z/GNWe2gFqUwAA+nNUkjf0sJzXJ3lYD8thbfYA1A4AMCBvSnJ0D8txKGD67AGoHQBgIL4/yY/2uLwnJnlxj8vjnuwBqB0AYACOSHJJ4divJPlY4djXJ3noWIlYjz0AtQMADMAb0l36V+LnkjwnZe9AtyX5rbhmfRrsAagdAGDBnZruBb3E+5NcnuTqJOcVfs9JSV40eizWoQDUDgCwwA5P+Tv0O5O8MMnS8r9fk+RfCp/n3CTfOHI6DkYBqB0AYIH9WpKHFI795SSfWvHvAwvBwWzN3fdBoB/Nf+KiAgAwnqekewEv8fEkF6zy9b9L98Je4pR0HxUMvVAAAEZ3WJLLUvaOfE+S52ftXc4/n+SGwuc9Pw4F9KX5vSnNfx4yMJEfT/L164y5OMltM8gyS+ek/E59FyT5yEH++21JXpbkjwuWtTXJW5I8LWWHDlibAlA7ALDQXpDuLPiDuTL9FIBHJDmjh+Ws5wNJPnmQ//4dSc4sXNb1SV5dMO49Sf4oyQ8XjH1quo8NLj10sJ5jMpuf6zVJ/n4Gz1NKAagdAKDQdy4/pu3MrF0AtqTb9b+pYDlL6S7f+2rh87403XH+kk8RvCDJe5N8pnDZB3Ncym9iNIk3Zr4KQPOcAwBQ7heTPLJw7OXpXqRL3ZjkFYVjtyZ5a7yLnUTzPzsFAKDMo9KdsFfixhHGrnRZkqsKx56S7hAMjEUBAFjf5nTv6A8pHP+SJLeO8TyjHjY4P+X3IeCe7AGoHQBgAbwiyeMKx757+TGuf013l8ASh8cNgsbV/M9MAQA4uBOSnF049j+TvLyH5zw/yT8Xjv2uJKf38Jytaf4keAUAYG0b0x2XP7Rw/M8m+UIPz7sn3Yt66f3qL0jydT08b0vuUztAbc03IGAi52T9S8i+VLicvq5rn9THVvz9iCQXLT/Wsyfd9fx9+Xi6G/48sHD89lW+dnm6TyCcB9fXDnAABaB2AGCh9fXi8nc9LadvNyd5V8Xn/9sJv/+jyw/urfkC4BAAAC1SAGoHAIAKFIDaAQCgAgWgdgAAqEABqB0AACpQAGoHAIAKFIDaAQCgAgWgdgAAqEABqB0AACrYUjtAbQoAAC2yB6B2AACoQAGoHQAAKlAAagcAgAoUgNoBAKACBaB2AACoQAGoHQAAKlAAagcAgAo21A5QmwIAQIv21Q5Q2+baAYCpOCPJ99QOARU8unDc0lRTLAAFAIbptNoBYM41vwfAIQAAWrSjdoDaFAAAWvTF2gFqUwAAaJECUDsAMJK9tQPAQHy6doDaFABYLDfUDgAD8d7aAWpTAGCxvLt2ABiAG5N8uHaI2hQAWCx/muQva4eABbaU5KeT7KkdpDYFABbLUpIfSfLOuJEJjOoL6e6RcWXtIPPAjYBg8dye5NlJXpvklCTb68aBNZ2dZFvBuF9NsnPFv3cm2X3AmC1JDlvj3/dNcujy37clOSTdjX7+c/nx2SQfTPKJeOfPCheneye13uOFtQICLKibUrZ9PbpWwJY5BAAADVIAAKBBCgAANEgBAIAGKQAA0CAFAAAapAAAQIMUAABokAIAAA1SAACgQQoAADRIAQCABikAANAgBQAAGqQAAECDFAAAaJACAAANUgAAoEEKAAA0SAEAgAYpAADQIAUAABqkAABAgxQAAGiQAgAADVIAAKBBCgAANEgBAIAGKQAA0CAFAAAapAAAQIMUAABokAIAAA1SAACgQQoAADRIAQCABikAANAgBQAAGqQAAECDFAAAaJACAAANUgAAoEEKAAA0SAEAgAYpAADQIAUAABqkAABAgxQAAGiQAgAADVIAAKBBCgAANEgBAIAGKQAA0CAFAAAapAAAQIMUAABokAIAAA1SAACgQQoAADRIAQCABikAANAgBQAAGqQAAECDFAAAaJACAAANUgAAoEEKAAA0SAEAgAYpAADQIAUAABqkAABAgxQAAGiQAgAADVIAAKBBCgAANEgBAIAGKQAA0CAFAAAapAAAQIMUAABokAIAAA1SAACgQQoAADRIAQCABikAANAgBQAAGqQAAECDFAAAaJACAAANUgAAoEEKAAA0SAEAgAYpAADQIAUAABqkACT7Csf5WQGMpnS7Wbodpkde1JJdheMOm2oKgOHZXjhux1RTsCoFoHzilU5kAJJDkmwpGLc7yZ1TzsIqFAAFAGAaDi8c591/JQpA+eQ7aqopAIblyMJxCkAlCkByc+G446aaAmBYSreZX55qCtakACSfLhx3/FRTAAzLCYXjSrfB9EwBSK5Psrdg3P2THD3lLABDUfqm6bqppmBNCkB39ulnC8d+6zSDAAxI6fZSAahEAeiUTsCTp5oCYBiOTHJi4VgFoBIFoPNPheNOmWoKgGE4OWWvL7uSXDvlLKxBAei8r3Dco+NyQID1nFo47gNxEyAq25KuiS4VPF5cKSPAItic5MaUbU/PqpQR7uGqlE3YD9YKCLAAfiBl29KlJN9eKSPcwytTPmndEwBgdX+Qsu3oLen2FkB1D033kZQlE/eiShkB5tmD0x3TL9mOXlopI6zq/SmbuF9NckyljADz6qKU70l9UqWMsKoXpHzyvr5SRoB5dHSS21O2/fz/STbUiQmru1/Krwa4LcnX1okJMHfekPI3UL9SKSMc1FtSPonfUSkjwDx5ZJK7UrbdvCPJg+rEhIN7aJLdKS8B7g4ItGxDkv+T8m3mxXViQpkrUj6Zr01yWJ2YANWdkfLt5V3p3mTB3Doh3UcEl07qy+rEBKjqkSk/8W8pyW/XiQmjuTzlk3opybPrxASoYmu6PaCl28hd8e6fBfHAJDenfHLvSPKYKkkBZmtjkisz2puks6skhTH9VEab4F9MclyVpACzc0FG2zb+a5JDqySFMW1M9+E/o0z0f4v7AwDDdVZG2yYuJfmeKklhQselu+nPKJP9X5I8pEZYgCk6M+WfmbL/8ZYqSaEnP5HRG++/J3lUjbAAPduQ5LyMvh28Osl9K+SFXv12Rp/8tyR5Wo2wAD3ZnuQPM/r2b0d8dDoDsTVdmx31l2BvknOSbJp9ZICJPDrJdRl9u7cv3Z5TGIwHJ/lcRv9lWEryt3ENLLAYNiZ5WbqPPh9ne/cLs48M0/fwJDdlvF+KXUlenWTLrEMDFHpMRr/6aeXjTbOPDLPzHUl2ZvxfkE8l+aF0LRtgHjwk3Rn7o9wG/cDHlbFdowFPSfKVjP+LspTkmiTPSrJ5xtkB9ntYus8zuTOTbc9+N8l9ZpwdqnlUusv9JvmlWUry+SS/lu6DNQCmbWu6Nx9/lWRPJt+GXRjv/GnQselucznpL9D+x0fSXTVwctw6E+jPsUlekOT30l2i18f2al+SV87yf4L+bKgdYCAemOTtSb675+XekeTD6c4ZuG75zy+k++W9Nd15CLt7fk5gMR2eZNvy46h0Jywfn+5upo9L8g09P99t6QrFu3peLjOiAPRnQ5KXp7tb1iGVswBM00eT/GiS62sHYXyO2fRnKclFSU5NckPlLADTsJTkjUkeHy/+C8/d6fr3uSSXpts1/4T4GQPD8Ol0d/d7U7pLBVlwDgFM14lJ3pzkibWDAIxpV7pDm69LclflLPTIu9Ppuindhwh9KskJSY6uGweg2B1JLknyY0n+LN71D449ALOzIcn3JTk7ybdVzgKwltuTXJ7k3HRXHTFQCkAdT03y3CTPSHJY3SgASZJPpLuc+YokX66chRlQAOranu4zAZ6V5KS4JTAwWzck+f10L/yfqJyFGVMA5sdh6a4aeGqSJyX59igEQL++nORDSf5fkvcm+ed0l/bRIAVgfm1Pdwev49OdQHh8kgfn7jt9HbH8p5sOAUl3Z76dy48dSb6U5DO5+06i16W7TNkLPgAAAAAAAAAAAAAAAAAAAAAAAAAAAMD0/RePE2VEeIKcJwAAAABJRU5ErkJggg==;" parent="1" vertex="1">
          <mxGeometry x="500" y="-856.25" width="97.5" height="97.5" as="geometry" />
        </mxCell>
        <mxCell id="tjha7oBD4TnNNyMjmvkG-8" value="MitREC.exe" style="text;strokeColor=none;fillColor=none;align=left;verticalAlign=middle;spacingLeft=4;spacingRight=4;overflow=hidden;points=[[0,0.5],[1,0.5]];portConstraint=eastwest;rotatable=0;whiteSpace=wrap;html=1;" parent="1" vertex="1">
          <mxGeometry x="508.75" y="-758.75" width="80" height="30" as="geometry" />
        </mxCell>
        <mxCell id="tjha7oBD4TnNNyMjmvkG-9" style="edgeStyle=orthogonalEdgeStyle;rounded=0;orthogonalLoop=1;jettySize=auto;html=1;exitX=0;exitY=0.5;exitDx=0;exitDy=0;entryX=0.553;entryY=-0.012;entryDx=0;entryDy=0;entryPerimeter=0;dashed=1;" parent="1" source="tjha7oBD4TnNNyMjmvkG-7" target="tjha7oBD4TnNNyMjmvkG-5" edge="1">
          <mxGeometry relative="1" as="geometry" />
        </mxCell>
        <mxCell id="tjha7oBD4TnNNyMjmvkG-10" value="TaskbarNotification" style="shape=module;align=left;spacingLeft=20;align=center;verticalAlign=middle;whiteSpace=wrap;html=1;" parent="1" vertex="1">
          <mxGeometry x="221.5" y="-748.75" width="150" height="50" as="geometry" />
        </mxCell>
        <mxCell id="ECEsprGZZSdOxLZh7G6Q-1" value="Контроллер &lt;br&gt;High Definition Audio" style="verticalAlign=top;align=center;spacingTop=8;spacingLeft=2;spacingRight=12;shape=cube;size=10;direction=south;fontStyle=4;html=1;whiteSpace=wrap;" parent="1" vertex="1">
          <mxGeometry x="-10" y="-868.75" width="180" height="120" as="geometry" />
        </mxCell>
        <mxCell id="ECEsprGZZSdOxLZh7G6Q-3" value="Устройство захвата звука" style="shape=module;align=left;spacingLeft=20;align=center;verticalAlign=top;whiteSpace=wrap;html=1;" parent="1" vertex="1">
          <mxGeometry x="10" y="-808.75" width="120" height="48" as="geometry" />
        </mxCell>
        <mxCell id="zCBtnJC5d4OZ5JHPHwk0-1" style="edgeStyle=orthogonalEdgeStyle;rounded=0;orthogonalLoop=1;jettySize=auto;html=1;exitX=0;exitY=0;exitDx=0;exitDy=35;exitPerimeter=0;entryX=0;entryY=0;entryDx=55;entryDy=0;entryPerimeter=0;dashed=1;" edge="1" parent="1" source="tjha7oBD4TnNNyMjmvkG-3" target="ECEsprGZZSdOxLZh7G6Q-1">
          <mxGeometry relative="1" as="geometry" />
        </mxCell>
      </root>
    </mxGraphModel>
  </diagram>
</mxfile>
